<svg width="49" height="48" viewBox="0 0 49 48" fill="none" xmlns="http://www.w3.org/2000/svg">
<circle cx="24.8281" cy="24" r="24" fill="#F5F5F5"/>
<path d="M27.8266 17.4004C27.8266 18.196 27.5105 18.9591 26.9479 19.5217C26.3853 20.0843 25.6222 20.4004 24.8266 20.4004C24.0309 20.4004 23.2679 20.0843 22.7052 19.5217C22.1426 18.9591 21.8266 18.196 21.8266 17.4004C21.8266 16.6047 22.1426 15.8417 22.7052 15.2791C23.2679 14.7165 24.0309 14.4004 24.8266 14.4004C25.6222 14.4004 26.3853 14.7165 26.9479 15.2791C27.5105 15.8417 27.8266 16.6047 27.8266 17.4004ZM33.8266 18.0004C33.8266 18.6369 33.5737 19.2474 33.1236 19.6974C32.6735 20.1475 32.0631 20.4004 31.4266 20.4004C30.79 20.4004 30.1796 20.1475 29.7295 19.6974C29.2794 19.2474 29.0266 18.6369 29.0266 18.0004C29.0266 17.3639 29.2794 16.7534 29.7295 16.3033C30.1796 15.8532 30.79 15.6004 31.4266 15.6004C32.0631 15.6004 32.6735 15.8532 33.1236 16.3033C33.5737 16.7534 33.8266 17.3639 33.8266 18.0004ZM18.2266 20.4004C18.8631 20.4004 19.4735 20.1475 19.9236 19.6974C20.3737 19.2474 20.6266 18.6369 20.6266 18.0004C20.6266 17.3639 20.3737 16.7534 19.9236 16.3033C19.4735 15.8532 18.8631 15.6004 18.2266 15.6004C17.59 15.6004 16.9796 15.8532 16.5295 16.3033C16.0794 16.7534 15.8266 17.3639 15.8266 18.0004C15.8266 18.6369 16.0794 19.2474 16.5295 19.6974C16.9796 20.1475 17.59 20.4004 18.2266 20.4004ZM20.0266 23.1004C20.0266 22.2724 20.6986 21.6004 21.5266 21.6004H28.1266C28.9546 21.6004 29.6266 22.2724 29.6266 23.1004V28.8004C29.6266 30.0734 29.1209 31.2943 28.2207 32.1945C27.3205 33.0947 26.0996 33.6004 24.8266 33.6004C23.5535 33.6004 22.3326 33.0947 21.4324 32.1945C20.5323 31.2943 20.0266 30.0734 20.0266 28.8004V23.1004ZM18.8266 23.1004C18.8266 22.5448 18.9946 22.03 19.2814 21.6004H16.7266C15.8986 21.6004 15.2266 22.2724 15.2266 23.1004V27.6004C15.2265 28.1141 15.3364 28.6219 15.5489 29.0897C15.7614 29.5574 16.0715 29.9743 16.4584 30.3122C16.8454 30.6502 17.3002 30.9014 17.7922 31.049C18.2843 31.1966 18.8023 31.2372 19.3114 31.168C18.9908 30.4198 18.8259 29.6143 18.8266 28.8004V23.1004ZM30.8266 28.8004C30.8266 29.6404 30.6538 30.442 30.3418 31.168C30.5002 31.1896 30.6618 31.2004 30.8266 31.2004C31.7813 31.2004 32.697 30.8211 33.3721 30.146C34.0473 29.4708 34.4266 28.5552 34.4266 27.6004V23.1004C34.4266 22.2724 33.7546 21.6004 32.9266 21.6004H30.3718C30.6598 22.03 30.8266 22.5448 30.8266 23.1004V28.8004Z" fill="#0B141B"/>
</svg>
