<svg width="49" height="48" viewBox="0 0 49 48" fill="none" xmlns="http://www.w3.org/2000/svg">
<circle cx="24.8281" cy="24" r="24" fill="#F5F5F5"/>
<g clip-path="url(#clip0_17_307)">
<path d="M23.9002 14.3109C24.2361 13.4744 25.4202 13.4744 25.7561 14.3108L27.6977 19.1458C27.8407 19.502 28.175 19.7449 28.558 19.7709L33.7563 20.1233C34.6556 20.1843 35.0215 21.3105 34.3298 21.8884L30.3315 25.2291C30.0369 25.4752 29.9092 25.8682 30.0029 26.2404L31.274 31.2932C31.4939 32.1674 30.5359 32.8634 29.7725 32.3841L25.3598 29.6138C25.0347 29.4097 24.6215 29.4097 24.2964 29.6138L19.8837 32.3841C19.1203 32.8634 18.1623 32.1674 18.3822 31.2932L19.6534 26.2404C19.747 25.8682 19.6193 25.4752 19.3248 25.2291L15.3264 21.8884C14.6347 21.3105 15.0006 20.1843 15.9 20.1233L21.0982 19.7709C21.4812 19.7449 21.8155 19.502 21.9586 19.1458L23.9002 14.3109Z" fill="#0B141B"/>
</g>
<defs>
<clipPath id="clip0_17_307">
<rect width="24" height="24" fill="white" transform="translate(12.8281 12)"/>
</clipPath>
</defs>
</svg>
