<svg width="49" height="48" viewBox="0 0 49 48" fill="none" xmlns="http://www.w3.org/2000/svg">
<g clip-path="url(#clip0_17_577)">
<path d="M14.3281 30L23.3281 18L30.3281 27L35.3281 21L42.3281 30M44.3281 8H28.3281L24.3281 4H12.3281C11.2673 4 10.2498 4.42143 9.4997 5.17157C8.74955 5.92172 8.32812 6.93913 8.32812 8V32C8.32812 33.0609 8.74955 34.0783 9.4997 34.8284C10.2498 35.5786 11.2673 36 12.3281 36H44.3281C45.389 36 46.4064 35.5786 47.1566 34.8284C47.9067 34.0783 48.3281 33.0609 48.3281 32V12C48.3281 10.9391 47.9067 9.92172 47.1566 9.17157C46.4064 8.42143 45.389 8 44.3281 8ZM4.32812 12H0.328125V22V40C0.328125 41.0609 0.749552 42.0783 1.4997 42.8284C2.24984 43.5786 3.26726 44 4.32812 44H40.3281V40H4.32812V12Z" fill="#0B141B"/>
</g>
<defs>
<clipPath id="clip0_17_577">
<rect width="48" height="48" fill="white" transform="translate(0.328125)"/>
</clipPath>
</defs>
</svg>
