<svg width="49" height="48" viewBox="0 0 49 48" fill="none" xmlns="http://www.w3.org/2000/svg">
<path d="M36.6281 34.78C36.1081 33.18 34.6081 32 32.8281 32H30.8281V26C30.8281 25.4696 30.6174 24.9609 30.2423 24.5858C29.8673 24.2107 29.3586 24 28.8281 24H16.8281V20H20.8281C21.3586 20 21.8673 19.7893 22.2423 19.4142C22.6174 19.0391 22.8281 18.5304 22.8281 18V14H26.8281C27.889 14 28.9064 13.5786 29.6566 12.8284C30.4067 12.0783 30.8281 11.0609 30.8281 10V9.18C36.6881 11.54 40.8281 17.28 40.8281 24C40.8281 28.16 39.2281 31.94 36.6281 34.78ZM22.8281 39.86C14.9281 38.88 8.82812 32.16 8.82812 24C8.82812 22.76 8.98812 21.56 9.24813 20.42L18.8281 30V32C18.8281 33.0609 19.2496 34.0783 19.9997 34.8284C20.7498 35.5786 21.7673 36 22.8281 36M24.8281 4C22.2017 4 19.601 4.51732 17.1745 5.52241C14.7479 6.5275 12.5432 8.00069 10.686 9.85786C6.93526 13.6086 4.82813 18.6957 4.82812 24C4.82813 29.3043 6.93526 34.3914 10.686 38.1421C12.5432 39.9993 14.7479 41.4725 17.1745 42.4776C19.601 43.4827 22.2017 44 24.8281 44C30.1325 44 35.2195 41.8929 38.9703 38.1421C42.721 34.3914 44.8281 29.3043 44.8281 24C44.8281 21.3736 44.3108 18.7728 43.3057 16.3463C42.3006 13.9198 40.8274 11.715 38.9703 9.85786C37.1131 8.00069 34.9083 6.5275 32.4818 5.52241C30.0553 4.51732 27.4546 4 24.8281 4Z" fill="#0B141B"/>
</svg>
