<svg width="49" height="48" viewBox="0 0 49 48" fill="none" xmlns="http://www.w3.org/2000/svg">
<path d="M40.2281 25.8L28.8281 37.2H24.2281V32.6L35.6281 21.2L40.2281 25.8ZM47.0281 24.2C47.0281 24.8 46.4281 25.4 45.8281 26L40.8281 31L39.0281 29.2L44.2281 24L43.0281 22.8L41.6281 24.2L37.0281 19.6L41.4281 15.4C41.8281 15 42.6281 15 43.2281 15.4L46.0281 18.2C46.4281 18.6 46.4281 19.4 46.0281 20C45.6281 20.4 45.2281 20.8 45.2281 21.2C45.2281 21.6 45.6281 22 46.0281 22.4C46.6281 23 47.2281 23.6 47.0281 24.2ZM6.82812 40V8H20.8281V18H30.8281V21L34.8281 17V16L22.8281 4H6.82812C4.62812 4 2.82812 5.8 2.82812 8V40C2.82812 42.2 4.62812 44 6.82812 44H30.8281C33.0281 44 34.8281 42.2 34.8281 40H6.82812ZM22.8281 34.2C22.4281 34.2 22.0281 34.4 21.8281 34.4L20.8281 30H17.8281L13.6281 33.4L14.8281 28H11.8281L9.82812 38H12.8281L18.6281 32.8L19.8281 37.4H21.8281L22.8281 37.2V34.2Z" fill="#0B141B"/>
</svg>
