<svg width="49" height="48" viewBox="0 0 49 48" fill="none" xmlns="http://www.w3.org/2000/svg">
<path d="M46.3281 9C46.3281 12.86 43.1881 16 39.3281 16C35.4681 16 32.3281 12.86 32.3281 9C32.3281 5.14 35.4681 2 39.3281 2C43.1881 2 46.3281 5.14 46.3281 9ZM39.3281 20C38.9881 20 38.6681 20 38.3281 20V38H10.3281V10H28.3881C28.3281 9.68 28.3281 9.34 28.3281 9C28.3281 8 28.4881 7 28.7481 6H10.3281C8.10812 6 6.32812 7.78 6.32812 10V38C6.32812 40.22 8.12812 42 10.3281 42H38.3281C40.5481 42 42.3281 40.22 42.3281 38V19.58C41.3281 19.84 40.3281 20 39.3281 20Z" fill="#0B141B"/>
<path d="M25.9881 19.2222C25.4281 17.9767 24.2281 17.1111 22.8281 17.1111H18.3281V15H30.3281V17.1111H27.0681C27.5481 17.7233 27.9081 18.4411 28.1181 19.2222H30.3281V21.3333H28.3281C28.0581 24.2889 25.6981 26.6111 22.8281 26.6111H22.0981L28.8281 34H26.0581L19.3281 26.6111V24.5H22.8281C24.5881 24.5 26.0481 23.1278 26.2881 21.3333H18.3281V19.2222H25.9881Z" fill="#0B141B"/>
</svg>
