<svg width="201" height="63" viewBox="0 0 201 63" fill="none" xmlns="http://www.w3.org/2000/svg">
<g clip-path="url(#clip0_17_379)">
<path d="M122.928 31.3272C127.267 34.7326 125.13 39.4719 126.576 43.6771H120.725C120.41 42.2874 120.289 40.0652 120.168 38.351C119.902 34.6146 118.886 34.0705 115.619 34.0705C113.436 34.0705 111.368 34.0771 109.067 34.0705C108.637 34.0705 108.244 34.0705 107.297 34.0705V43.7066H101.777V18.3742C102.751 18.3742 103.564 18.3807 104.403 18.3742C108.66 18.3479 112.918 18.3479 117.179 18.3742C118.267 18.3807 119.365 18.4561 120.44 18.6134C123.236 19.0231 125.232 20.1735 126.061 22.9562C126.91 25.8012 126.428 28.6461 124.258 30.4619C123.931 30.7339 123.537 30.9371 122.931 31.3272H122.928ZM107.294 22.6973V29.7015H117.012C119.575 29.7015 120.804 28.2528 120.804 26.3518C120.804 24.1886 119.738 22.6973 117.264 22.6973H107.294Z" fill="white"/>
</g>
<g filter="url(#filter0_i_17_379)">
<path d="M180.358 22.0652C177.519 24.6086 174.858 26.9914 171.938 29.6102C167.752 27.0898 164.537 23.9236 163.865 19.063C162.774 11.1738 166.012 5.23157 173.822 1.63279C180.358 -1.37849 189.365 0.00710951 194.301 3.89432C197.644 6.52622 199.853 9.75464 200.449 14.1204C201.046 18.4861 199.401 22.2357 196.805 25.5985C195.88 26.7948 194.681 27.7912 193.53 28.7941C188.752 32.9501 183.943 37.07 179.148 41.203C178.735 41.5603 178.313 41.9044 177.909 42.2748C175.579 44.4151 174.947 46.4439 175.92 48.6267C176.926 50.885 179.788 52.455 182.41 52.1829C185.218 51.8912 187.66 49.9575 188.165 47.555C188.621 45.3852 187.739 43.7005 186.041 42.4288C185.268 41.8487 184.376 41.4292 183.213 40.7442C186.185 38.2434 189.001 35.877 191.724 33.5859C198.509 36.3555 201.656 44.9198 199.709 50.9079C197.329 58.2202 187.323 64.192 176.605 61.8813C174.337 61.2454 172.131 60.1179 170.135 58.8397C161.938 53.5825 161.44 41.4357 168.67 35.4279C173.54 31.3834 178.263 27.1619 183.049 23.0157C184.12 22.0849 185.232 21.1901 186.218 20.1741C186.89 19.4825 187.536 18.6828 187.913 17.8109C188.932 15.4511 187.791 12.8257 185.31 11.4983C182.328 9.90213 178.336 10.7543 176.474 13.3862C174.894 15.6182 175.232 18.2895 177.411 20.1085C178.221 20.7837 179.171 21.2852 180.364 22.0652H180.358Z" fill="white"/>
</g>
<path fill-rule="evenodd" clip-rule="evenodd" d="M0.828125 43.7129H6.34429L14.9074 23.9473L23.5319 43.713H29.048L17.996 18.3839H17.3176L17.3176 18.3838H11.8015L0.828125 43.7129Z" fill="white"/>
<path fill-rule="evenodd" clip-rule="evenodd" d="M135.852 18.3838H130.703V43.7129H135.852V24.059L150.756 43.713H151.68H155.905H156.829V18.3839H151.68V38.1415L136.698 18.3839H135.852V18.3838Z" fill="white"/>
<path fill-rule="evenodd" clip-rule="evenodd" d="M31.3703 18.3838H36.8865V39.5373H52.111V43.7097H36.8865V43.7129H31.3703V43.7097H31.3672V39.5373H31.3703V18.3838Z" fill="white"/>
<path fill-rule="evenodd" clip-rule="evenodd" d="M73.0704 18.3838V22.5561H63.6605V43.7129H58.1443V22.5561H48.7344V18.3838H58.1443H63.6605H73.0704Z" fill="white"/>
<path fill-rule="evenodd" clip-rule="evenodd" d="M75.6016 18.3838H81.1178V18.3839H97.5253V22.5563H81.1178V39.5407H97.5253V43.7131H75.6016V39.5407H75.6016V22.5563H75.6016V18.3839H75.6016V18.3838ZM97.5252 28.9607V33.133H87.3123V28.9607H97.5252Z" fill="white"/>
<defs>
<filter id="filter0_i_17_379" x="159.594" y="0" width="40.9766" height="66.3853" filterUnits="userSpaceOnUse" color-interpolation-filters="sRGB">
<feFlood flood-opacity="0" result="BackgroundImageFix"/>
<feBlend mode="normal" in="SourceGraphic" in2="BackgroundImageFix" result="shape"/>
<feColorMatrix in="SourceAlpha" type="matrix" values="0 0 0 0 0 0 0 0 0 0 0 0 0 0 0 0 0 0 127 0" result="hardAlpha"/>
<feOffset dx="-8" dy="6"/>
<feGaussianBlur stdDeviation="2"/>
<feComposite in2="hardAlpha" operator="arithmetic" k2="-1" k3="1"/>
<feColorMatrix type="matrix" values="0 0 0 0 0 0 0 0 0 0 0 0 0 0 0 0 0 0 0.2 0"/>
<feBlend mode="normal" in2="shape" result="effect1_innerShadow_17_379"/>
</filter>
<clipPath id="clip0_17_379">
<rect width="24.7982" height="25.3488" fill="white" transform="translate(101.777 18.3545)"/>
</clipPath>
</defs>
</svg>
