<svg width="187" height="36" viewBox="0 0 187 36" fill="none" xmlns="http://www.w3.org/2000/svg">
<g clip-path="url(#clip0_17_149)">
<path d="M71.1262 18.0773C73.6247 20.0379 72.3943 22.7665 73.2265 25.1876H69.8581C69.677 24.3875 69.6072 23.1081 69.5373 22.1212C69.3845 19.97 68.7995 19.6567 66.9181 19.6567C65.6614 19.6567 64.4707 19.6605 63.146 19.6567C62.8988 19.6567 62.6723 19.6567 62.127 19.6567V25.2046H58.9492V10.6197C59.5097 10.6197 59.9777 10.6235 60.4607 10.6197C62.912 10.6046 65.3632 10.6046 67.8164 10.6197C68.4429 10.6235 69.075 10.6669 69.694 10.7575C71.3036 10.9934 72.4528 11.6557 72.9302 13.2578C73.419 14.8957 73.1416 16.5337 71.8924 17.5791C71.7037 17.7357 71.4772 17.8527 71.1281 18.0773H71.1262ZM62.1251 13.1087V17.1413H67.7201C69.1958 17.1413 69.9034 16.3072 69.9034 15.2128C69.9034 13.9673 69.2901 13.1087 67.8654 13.1087H62.1251Z" fill="#0B141B"/>
</g>
<g filter="url(#filter0_i_17_149)">
<path d="M104.191 12.7448C102.557 14.2092 101.024 15.581 99.343 17.0888C96.9333 15.6376 95.0821 13.8148 94.6953 11.0163C94.0669 6.47422 95.9313 3.05303 100.428 0.981076C104.191 -0.752635 109.376 0.0451088 112.218 2.28313C114.143 3.79841 115.415 5.65714 115.758 8.17066C116.102 10.6842 115.154 12.8429 113.66 14.779C113.128 15.4678 112.437 16.0415 111.775 16.6189C109.023 19.0116 106.255 21.3836 103.494 23.7632C103.257 23.9689 103.013 24.167 102.781 24.3802C101.44 25.6125 101.075 26.7805 101.636 28.0373C102.215 29.3375 103.862 30.2414 105.372 30.0847C106.989 29.9168 108.395 28.8034 108.686 27.4203C108.948 26.171 108.44 25.2011 107.463 24.4689C107.018 24.1349 106.504 23.8934 105.834 23.499C107.546 22.0592 109.167 20.6968 110.735 19.3777C114.641 20.9723 116.453 25.9031 115.332 29.3507C113.962 33.5606 108.201 36.9988 102.03 35.6685C100.724 35.3024 99.4543 34.6532 98.3051 33.9173C93.5857 30.8905 93.2989 23.8972 97.4616 20.4382C100.266 18.1096 102.985 15.6792 105.74 13.2921C106.357 12.7561 106.997 12.241 107.565 11.656C107.952 11.2578 108.323 10.7974 108.54 10.2955C109.127 8.93679 108.471 7.42528 107.042 6.66104C105.325 5.74205 103.026 6.23268 101.955 7.74797C101.045 9.03303 101.239 10.571 102.494 11.6183C102.96 12.007 103.508 12.2957 104.195 12.7448H104.191Z" fill="#0B141B"/>
</g>
<path fill-rule="evenodd" clip-rule="evenodd" d="M0.828125 25.208H4.004L8.93412 13.828L13.8996 25.208H17.0755L10.7124 10.625H10.3218L10.3218 10.625H7.1459L0.828125 25.208Z" fill="#0B141B"/>
<path fill-rule="evenodd" clip-rule="evenodd" d="M78.5661 10.625H75.6016V25.208H78.5661V13.8925L87.1464 25.208H87.6785H90.1109H90.643V10.625H87.6785V22.0002L79.0529 10.625H78.5661V10.625Z" fill="#0B141B"/>
<path fill-rule="evenodd" clip-rule="evenodd" d="M18.412 10.625H21.5879V22.8039H30.3532V25.2061H21.5879V25.208H18.412V25.2061H18.4102V22.8039H18.412V10.625Z" fill="#0B141B"/>
<path fill-rule="evenodd" clip-rule="evenodd" d="M42.4214 10.625V13.0272H37.0037V25.208H33.8279V13.0272H28.4102V10.625H33.8279H37.0037H42.4214Z" fill="#0B141B"/>
<path fill-rule="evenodd" clip-rule="evenodd" d="M43.879 10.625H47.0549V10.625H56.5012V13.0272H47.0549V22.8058H56.5012V25.208H43.8789V22.8058H43.879V13.0272H43.8789V10.625H43.879V10.625ZM56.5012 16.7145V19.1167H50.6212V16.7145H56.5012Z" fill="#0B141B"/>
<defs>
<filter id="filter0_i_17_149" x="90.5391" y="0.0410156" width="25.2891" height="39.918" filterUnits="userSpaceOnUse" color-interpolation-filters="sRGB">
<feFlood flood-opacity="0" result="BackgroundImageFix"/>
<feBlend mode="normal" in="SourceGraphic" in2="BackgroundImageFix" result="shape"/>
<feColorMatrix in="SourceAlpha" type="matrix" values="0 0 0 0 0 0 0 0 0 0 0 0 0 0 0 0 0 0 127 0" result="hardAlpha"/>
<feOffset dx="-8" dy="6"/>
<feGaussianBlur stdDeviation="2"/>
<feComposite in2="hardAlpha" operator="arithmetic" k2="-1" k3="1"/>
<feColorMatrix type="matrix" values="0 0 0 0 0 0 0 0 0 0 0 0 0 0 0 0 0 0 0.2 0"/>
<feBlend mode="normal" in2="shape" result="effect1_innerShadow_17_149"/>
</filter>
<clipPath id="clip0_17_149">
<rect width="14.2773" height="14.5943" fill="white" transform="translate(58.9492 10.6084)"/>
</clipPath>
</defs>
</svg>
