<svg width="49" height="48" viewBox="0 0 49 48" fill="none" xmlns="http://www.w3.org/2000/svg">
<circle cx="24.8281" cy="24" r="24" fill="#F5F5F5"/>
<g clip-path="url(#clip0_17_293)">
<path d="M24.8281 12C31.4551 12 36.8281 17.373 36.8281 24C36.8281 30.627 31.4551 36 24.8281 36C18.2011 36 12.8281 30.627 12.8281 24C12.8281 17.373 18.2011 12 24.8281 12ZM24.8281 31.826C25.8664 31.8426 26.8976 31.6524 27.8616 31.2666C28.8256 30.8808 29.7033 30.3069 30.4433 29.5786C31.1834 28.8502 31.7712 27.9819 32.1724 27.0241C32.5736 26.0664 32.7802 25.0384 32.7802 24C32.7802 22.9616 32.5736 21.9336 32.1724 20.9759C31.7712 20.0181 31.1834 19.1498 30.4433 18.4214C29.7033 17.6931 28.8256 17.1192 27.8616 16.7334C26.8976 16.3476 25.8664 16.1574 24.8281 16.174C22.7742 16.2068 20.8155 17.0458 19.3747 18.5099C17.9338 19.974 17.1262 21.9458 17.1262 24C17.1262 26.0542 17.9338 28.026 19.3747 29.4901C20.8155 30.9542 22.7742 31.7932 24.8281 31.826ZM24.8281 27.841C23.8097 27.841 22.833 27.4364 22.1128 26.7163C21.3927 25.9962 20.9881 25.0194 20.9881 24.001C20.9881 22.9826 21.3927 22.0058 22.1128 21.2857C22.833 20.5656 23.8097 20.161 24.8281 20.161C25.8466 20.161 26.8233 20.5656 27.5434 21.2857C28.2636 22.0058 28.6681 22.9826 28.6681 24.001C28.6681 25.0194 28.2636 25.9962 27.5434 26.7163C26.8233 27.4364 25.8466 27.841 24.8281 27.841Z" fill="#0B141B"/>
</g>
<defs>
<clipPath id="clip0_17_293">
<rect width="24" height="24" fill="white" transform="translate(12.8281 12)"/>
</clipPath>
</defs>
</svg>
