<svg width="31" height="30" viewBox="0 0 31 30" fill="none" xmlns="http://www.w3.org/2000/svg">
<path fill-rule="evenodd" clip-rule="evenodd" d="M15.8517 28C23.0395 28 28.8636 22.1782 28.8636 15C28.8636 7.82179 23.0395 2 15.8517 2C8.66397 2 2.83984 7.82179 2.83984 15C2.83984 22.1782 8.66397 28 15.8517 28ZM15.8517 30C24.1425 30 30.8636 23.2843 30.8636 15C30.8636 6.71573 24.1425 0 15.8517 0C7.56089 0 0.839844 6.71573 0.839844 15C0.839844 23.2843 7.56089 30 15.8517 30Z" fill="#0B141B"/>
<rect x="23.3594" y="13.75" width="2.5" height="15.0119" rx="1.25" transform="rotate(90 23.3594 13.75)" fill="#0B141B"/>
</svg>
