<svg width="31" height="30" viewBox="0 0 31 30" fill="none" xmlns="http://www.w3.org/2000/svg">
<path fill-rule="evenodd" clip-rule="evenodd" d="M15.84 28C23.0278 28 28.8519 22.1782 28.8519 15C28.8519 7.82179 23.0278 2 15.84 2C8.65225 2 2.82812 7.82179 2.82812 15C2.82812 22.1782 8.65225 28 15.84 28ZM15.84 30C24.1308 30 30.8519 23.2843 30.8519 15C30.8519 6.71573 24.1308 0 15.84 0C7.54917 0 0.828125 6.71573 0.828125 15C0.828125 23.2843 7.54917 30 15.84 30Z" fill="#0B141B"/>
<rect x="14.5898" y="7.5" width="2.50198" height="15" rx="1.25099" fill="#0B141B"/>
<rect x="23.3477" y="13.75" width="2.5" height="15.0119" rx="1.25" transform="rotate(90 23.3477 13.75)" fill="#0B141B"/>
</svg>
