<svg width="49" height="48" viewBox="0 0 49 48" fill="none" xmlns="http://www.w3.org/2000/svg">
<g clip-path="url(#clip0_17_563)">
<path d="M18.8281 23.5C18.1651 23.5 17.5292 23.7634 17.0604 24.2322C16.5915 24.7011 16.3281 25.337 16.3281 26C16.3281 26.663 16.5915 27.2989 17.0604 27.7678C17.5292 28.2366 18.1651 28.5 18.8281 28.5C19.1564 28.5 19.4815 28.4353 19.7848 28.3097C20.0881 28.1841 20.3637 27.9999 20.5959 27.7678C20.828 27.5356 21.0122 27.26 21.1378 26.9567C21.2635 26.6534 21.3281 26.3283 21.3281 26C21.3281 25.6717 21.2635 25.3466 21.1378 25.0433C21.0122 24.74 20.828 24.4644 20.5959 24.2322C20.3637 24.0001 20.0881 23.8159 19.7848 23.6903C19.4815 23.5647 19.1564 23.5 18.8281 23.5ZM30.8281 23.5C30.1651 23.5 29.5292 23.7634 29.0604 24.2322C28.5915 24.7011 28.3281 25.337 28.3281 26C28.3281 26.663 28.5915 27.2989 29.0604 27.7678C29.5292 28.2366 30.1651 28.5 30.8281 28.5C31.4912 28.5 32.1271 28.2366 32.5959 27.7678C33.0647 27.2989 33.3281 26.663 33.3281 26C33.3281 25.337 33.0647 24.7011 32.5959 24.2322C32.1271 23.7634 31.4912 23.5 30.8281 23.5ZM24.8281 4C22.2017 4 19.601 4.51732 17.1745 5.52241C14.7479 6.5275 12.5432 8.00069 10.686 9.85786C6.93526 13.6086 4.82812 18.6957 4.82812 24C4.82812 29.3043 6.93526 34.3914 10.686 38.1421C12.5432 39.9993 14.7479 41.4725 17.1745 42.4776C19.601 43.4827 22.2017 44 24.8281 44C30.1325 44 35.2195 41.8929 38.9703 38.1421C42.721 34.3914 44.8281 29.3043 44.8281 24C44.8281 21.3736 44.3108 18.7728 43.3057 16.3463C42.3006 13.9198 40.8274 11.715 38.9703 9.85786C37.1131 8.00069 34.9083 6.5275 32.4818 5.52241C30.0553 4.51732 27.4546 4 24.8281 4ZM24.8281 40C20.5847 40 16.515 38.3143 13.5144 35.3137C10.5138 32.3131 8.82812 28.2435 8.82812 24C8.76813 23.42 8.76813 22.86 8.82812 22.28C13.5881 20.2 17.3681 16.34 19.3481 11.54C23.0881 16.84 29.1681 20 35.6681 20C37.1881 20 38.6881 19.82 40.1681 19.48C42.6681 28 37.8281 36.86 29.3481 39.34C27.8281 39.78 26.3481 40 24.8281 40ZM0.828125 4C0.828125 2.93913 1.24955 1.92172 1.9997 1.17157C2.74984 0.421427 3.76726 0 4.82812 0L12.8281 0V4H4.82812V12H0.828125V4ZM48.8281 44C48.8281 45.0609 48.4067 46.0783 47.6566 46.8284C46.9064 47.5786 45.889 48 44.8281 48H36.8281V44H44.8281V36H48.8281V44ZM4.82812 48C3.76726 48 2.74984 47.5786 1.9997 46.8284C1.24955 46.0783 0.828125 45.0609 0.828125 44V36H4.82812V44H12.8281V48H4.82812ZM44.8281 0C45.889 0 46.9064 0.421427 47.6566 1.17157C48.4067 1.92172 48.8281 2.93913 48.8281 4V12H44.8281V4H36.8281V0H44.8281Z" fill="#0B141B"/>
</g>
<defs>
<clipPath id="clip0_17_563">
<rect width="48" height="48" fill="white" transform="translate(0.828125)"/>
</clipPath>
</defs>
</svg>
